<svg width="156" height="60" viewBox="0 0 156 60" fill="none" xmlns="http://www.w3.org/2000/svg">
<path d="M6.82086 18.2609L24.6791 0L49.6063 19.7516L31.376 21.6149L52.9547 32.795L31.376 33.5404L54.0709 48.4472L30.2598 46.5839V57.3913H22.6949V46.5839L0 47.7019L18.6024 32.795L1.98424 30.9317L20.8347 19.7516L6.82086 18.2609Z" fill="#495BFF"/>
<path d="M29.5157 24.9689L43.6535 10.0621L56.3032 25.7143L48.2421 27.5776L61.1398 39.1304L48.2421 39.5031L63 53.6646L47.126 52.5466V60H41.0492V52.5466L24.6791 55.528L40.3051 40.6211L25.0512 39.1304L37.7008 25.7143L29.5157 24.9689Z" fill="#9EA8FF"/>
<path d="M89.2383 24.8281C89.2383 25.4766 89.1172 26.0352 88.875 26.5039C88.6406 26.9727 88.3242 27.3711 87.9258 27.6992C87.5273 28.0273 87.0664 28.2969 86.543 28.5078C86.0273 28.7109 85.4883 28.8711 84.9258 28.9883C84.3633 29.1055 83.7969 29.1836 83.2266 29.2227C82.6641 29.2617 82.1367 29.2812 81.6445 29.2812C81.1602 29.2812 80.6562 29.2617 80.1328 29.2227C79.6172 29.1914 79.1016 29.1328 78.5859 29.0469C78.0703 28.9609 77.5625 28.8477 77.0625 28.707C76.5625 28.5586 76.0898 28.375 75.6445 28.1562L75.6211 13.0625C76.0586 12.8828 76.5234 12.7227 77.0156 12.582C77.5078 12.4336 78.0078 12.3125 78.5156 12.2188C79.0312 12.1172 79.543 12.043 80.0508 11.9961C80.5586 11.9414 81.0508 11.9141 81.5273 11.9141C82.082 11.9141 82.6406 11.9492 83.2031 12.0195C83.7734 12.0898 84.3203 12.207 84.8438 12.3711C85.3672 12.5352 85.8555 12.75 86.3086 13.0156C86.7617 13.2734 87.1562 13.5938 87.4922 13.9766C87.8359 14.3594 88.1016 14.8047 88.2891 15.3125C88.4844 15.8203 88.582 16.4062 88.582 17.0703C88.582 17.5078 88.5195 17.918 88.3945 18.3008C88.2695 18.6836 88.0898 19.0273 87.8555 19.332C87.6211 19.6367 87.3359 19.8984 87 20.1172C86.6641 20.3281 86.2852 20.4844 85.8633 20.5859C86.3711 20.7188 86.832 20.9141 87.2461 21.1719C87.668 21.4297 88.0234 21.7422 88.3125 22.1094C88.6094 22.4766 88.8359 22.8906 88.9922 23.3516C89.1562 23.8125 89.2383 24.3047 89.2383 24.8281ZM83.2852 18.1484C83.2852 17.9219 83.2383 17.7305 83.1445 17.5742C83.0508 17.4102 82.9336 17.2773 82.793 17.1758C82.6602 17.0742 82.5117 17 82.3477 16.9531C82.1914 16.9062 82.0508 16.8828 81.9258 16.8828C81.7695 16.8828 81.6172 16.9062 81.4688 16.9531C81.3203 17 81.1758 17.0547 81.0352 17.1172L80.9648 19.7188C81.1445 19.7188 81.3672 19.7031 81.6328 19.6719C81.8984 19.6406 82.1523 19.5742 82.3945 19.4727C82.6445 19.3633 82.8555 19.207 83.0273 19.0039C83.1992 18.793 83.2852 18.5078 83.2852 18.1484ZM81.6211 21.9688C81.3945 21.9688 81.1758 21.9922 80.9648 22.0391L80.918 24.7109C81.0352 24.7344 81.1484 24.7578 81.2578 24.7812C81.375 24.7969 81.4883 24.8047 81.5977 24.8047C81.7617 24.8047 81.9414 24.7891 82.1367 24.7578C82.332 24.7188 82.5156 24.6484 82.6875 24.5469C82.8594 24.4375 83 24.293 83.1094 24.1133C83.2266 23.9336 83.2852 23.6953 83.2852 23.3984C83.2852 23.1016 83.2266 22.8594 83.1094 22.6719C83 22.4844 82.8633 22.3398 82.6992 22.2383C82.5352 22.1289 82.3555 22.0586 82.1602 22.0273C81.9648 21.9883 81.7852 21.9688 81.6211 21.9688ZM100.148 22.7891L99.6562 27.9922L89.7891 28.7656L90.1641 12.0312H96.2578L95.3906 22.7891H100.148ZM114.668 12.5C114.316 15.25 114.016 17.9883 113.766 20.7148C113.516 23.4336 113.277 26.1719 113.051 28.9297L108.246 29.2812L108.457 27.4766C108.301 27.6562 108.117 27.8125 107.906 27.9453C107.703 28.0781 107.484 28.1875 107.25 28.2734C107.016 28.3516 106.773 28.4102 106.523 28.4492C106.273 28.4805 106.035 28.4922 105.809 28.4844C105.277 28.4766 104.777 28.375 104.309 28.1797C103.84 27.9766 103.41 27.7109 103.02 27.3828C102.629 27.0469 102.277 26.6602 101.965 26.2227C101.652 25.7773 101.387 25.3125 101.168 24.8281C100.957 24.3359 100.793 23.8359 100.676 23.3281C100.566 22.8203 100.512 22.3281 100.512 21.8516C100.512 21.1484 100.523 20.4219 100.547 19.6719C100.578 18.9141 100.629 18.1562 100.699 17.3984C100.77 16.6406 100.859 15.8906 100.969 15.1484C101.086 14.4062 101.23 13.6953 101.402 13.0156C102.355 13.0625 103.312 13.1055 104.273 13.1445C105.234 13.1836 106.191 13.1953 107.145 13.1797C106.965 13.8594 106.785 14.543 106.605 15.2305C106.434 15.9102 106.277 16.5977 106.137 17.293C105.996 17.9805 105.883 18.6719 105.797 19.3672C105.711 20.0625 105.668 20.7656 105.668 21.4766C105.668 21.6406 105.676 21.875 105.691 22.1797C105.707 22.4844 105.746 22.7852 105.809 23.082C105.879 23.3789 105.98 23.6406 106.113 23.8672C106.254 24.0859 106.449 24.1953 106.699 24.1953C106.996 24.1953 107.262 24.0703 107.496 23.8203C107.73 23.5625 107.938 23.2188 108.117 22.7891C108.297 22.3594 108.449 21.8633 108.574 21.3008C108.707 20.7383 108.816 20.1523 108.902 19.543C108.996 18.9258 109.07 18.3047 109.125 17.6797C109.18 17.0547 109.219 16.4688 109.242 15.9219C109.273 15.3672 109.293 14.8711 109.301 14.4336C109.316 13.9961 109.324 13.6562 109.324 13.4141C109.324 13.2578 109.32 13.1055 109.312 12.957C109.305 12.8086 109.293 12.6562 109.277 12.5C109.785 12.5156 110.289 12.5273 110.789 12.5352C111.289 12.543 111.793 12.5469 112.301 12.5469C112.691 12.5469 113.082 12.5469 113.473 12.5469C113.871 12.5391 114.27 12.5234 114.668 12.5ZM128.262 19.5312C128.262 20.2109 128.215 20.8906 128.121 21.5703C126.785 21.6562 125.457 21.7969 124.137 21.9922C122.816 22.1797 121.496 22.3672 120.176 22.5547C120.379 23.1172 120.695 23.5664 121.125 23.9023C121.562 24.2383 122.082 24.4062 122.684 24.4062C122.996 24.4062 123.336 24.3477 123.703 24.2305C124.078 24.1133 124.449 23.9688 124.816 23.7969C125.184 23.6172 125.535 23.4258 125.871 23.2227C126.207 23.0195 126.496 22.8359 126.738 22.6719L126.176 27.9922C125.871 28.2266 125.539 28.4258 125.18 28.5898C124.828 28.7539 124.461 28.8867 124.078 28.9883C123.695 29.0898 123.309 29.1641 122.918 29.2109C122.527 29.2578 122.145 29.2812 121.77 29.2812C120.996 29.2812 120.289 29.1758 119.648 28.9648C119.008 28.7539 118.426 28.4609 117.902 28.0859C117.387 27.7031 116.934 27.2539 116.543 26.7383C116.152 26.2227 115.828 25.6602 115.57 25.0508C115.312 24.4414 115.117 23.7969 114.984 23.1172C114.852 22.4375 114.785 21.75 114.785 21.0547C114.785 20.3281 114.852 19.6016 114.984 18.875C115.117 18.1484 115.316 17.4492 115.582 16.7773C115.855 16.1055 116.195 15.4844 116.602 14.9141C117.016 14.3359 117.496 13.832 118.043 13.4023C118.59 12.9727 119.207 12.6367 119.895 12.3945C120.59 12.1523 121.355 12.0312 122.191 12.0312C122.887 12.0312 123.52 12.1289 124.09 12.3242C124.668 12.5117 125.18 12.7773 125.625 13.1211C126.078 13.457 126.469 13.8594 126.797 14.3281C127.133 14.7969 127.406 15.3125 127.617 15.875C127.836 16.4297 127.996 17.0195 128.098 17.6445C128.207 18.2617 128.262 18.8906 128.262 19.5312ZM123.574 18.9219C123.574 18.7031 123.551 18.4805 123.504 18.2539C123.457 18.0195 123.379 17.8086 123.27 17.6211C123.168 17.4336 123.031 17.2812 122.859 17.1641C122.688 17.0391 122.473 16.9766 122.215 16.9766C121.902 16.9766 121.625 17.0625 121.383 17.2344C121.148 17.3984 120.945 17.6094 120.773 17.8672C120.602 18.1172 120.461 18.3906 120.352 18.6875C120.242 18.9844 120.16 19.2578 120.105 19.5078L123.574 19.1797V18.9219ZM86.6953 36.1016C86.6484 36.8359 86.6055 37.5625 86.5664 38.2812C86.5273 39 86.4766 39.7266 86.4141 40.4609L81.4453 40.7188V42.1953H85.7578L85.5234 45.8281L81.4219 45.9453L81.4453 52.8828L75.5156 53L75.8906 36.1016H86.6953ZM101.543 44.0234C101.543 44.7344 101.461 45.4219 101.297 46.0859C101.133 46.7422 100.895 47.3594 100.582 47.9375C100.277 48.5156 99.9023 49.0469 99.457 49.5312C99.0195 50.0078 98.5234 50.418 97.9688 50.7617C97.4219 51.1055 96.8242 51.375 96.1758 51.5703C95.5273 51.7578 94.8398 51.8516 94.1133 51.8516C93.4102 51.8516 92.7383 51.7617 92.0977 51.582C91.4648 51.4023 90.8711 51.1523 90.3164 50.832C89.7617 50.5039 89.2578 50.1133 88.8047 49.6602C88.3594 49.1992 87.9766 48.6914 87.6562 48.1367C87.3438 47.5742 87.0977 46.9727 86.918 46.332C86.7461 45.6914 86.6602 45.0234 86.6602 44.3281C86.6602 43.6484 86.7422 42.9844 86.9062 42.3359C87.0703 41.6797 87.3047 41.0625 87.6094 40.4844C87.9219 39.9062 88.2969 39.375 88.7344 38.8906C89.1719 38.4062 89.6602 37.9883 90.1992 37.6367C90.7461 37.2852 91.3359 37.0117 91.9688 36.8164C92.6016 36.6211 93.2695 36.5234 93.9727 36.5234C95.1055 36.5234 96.1367 36.6992 97.0664 37.0508C98.0039 37.4023 98.8008 37.9062 99.457 38.5625C100.121 39.2109 100.633 40 100.992 40.9297C101.359 41.8516 101.543 42.8828 101.543 44.0234ZM96.3398 44.3281C96.3398 43.9922 96.2891 43.668 96.1875 43.3555C96.0938 43.0352 95.9531 42.7539 95.7656 42.5117C95.5781 42.2617 95.3438 42.0625 95.0625 41.9141C94.7891 41.7578 94.4727 41.6797 94.1133 41.6797C93.7461 41.6797 93.418 41.7461 93.1289 41.8789C92.8398 42.0117 92.5898 42.1953 92.3789 42.4297C92.1758 42.6562 92.0195 42.9258 91.9102 43.2383C91.8008 43.543 91.7461 43.8672 91.7461 44.2109C91.7461 44.5391 91.793 44.8672 91.8867 45.1953C91.9805 45.5234 92.1211 45.8203 92.3086 46.0859C92.4961 46.3516 92.7266 46.5664 93 46.7305C93.2812 46.8945 93.6055 46.9766 93.9727 46.9766C94.3398 46.9766 94.668 46.9062 94.957 46.7656C95.2539 46.6172 95.5039 46.4219 95.707 46.1797C95.9102 45.9297 96.0664 45.6445 96.1758 45.3242C96.2852 45.0039 96.3398 44.6719 96.3398 44.3281ZM116.098 41.7031C116.098 42.3125 116.043 42.8672 115.934 43.3672C115.832 43.8594 115.668 44.3125 115.441 44.7266C115.215 45.1406 114.922 45.5234 114.562 45.875C114.203 46.2266 113.77 46.5625 113.262 46.8828L116.051 51.8516L110.777 52.8828L108.973 47.8906L107.52 47.9375L107.309 52.8125H102.27C102.309 51.0312 102.344 49.2578 102.375 47.4922C102.414 45.7266 102.457 43.9531 102.504 42.1719C102.52 41.2734 102.535 40.3828 102.551 39.5C102.566 38.6172 102.598 37.7266 102.645 36.8281C103.191 36.625 103.73 36.457 104.262 36.3242C104.793 36.1914 105.324 36.0898 105.855 36.0195C106.395 35.9414 106.938 35.8906 107.484 35.8672C108.039 35.8359 108.605 35.8203 109.184 35.8203C110.074 35.8203 110.934 35.9453 111.762 36.1953C112.598 36.4375 113.336 36.8047 113.977 37.2969C114.617 37.7891 115.129 38.4023 115.512 39.1367C115.902 39.8711 116.098 40.7266 116.098 41.7031ZM110.848 42.0781C110.848 41.75 110.801 41.4492 110.707 41.1758C110.621 40.9023 110.488 40.668 110.309 40.4727C110.137 40.2695 109.918 40.1133 109.652 40.0039C109.395 39.8867 109.09 39.8281 108.738 39.8281C108.582 39.8281 108.43 39.8398 108.281 39.8633C108.133 39.8789 107.988 39.9062 107.848 39.9453L107.66 44.3047H107.941C108.277 44.3047 108.617 44.2617 108.961 44.1758C109.312 44.0898 109.625 43.957 109.898 43.7773C110.18 43.5977 110.406 43.3672 110.578 43.0859C110.758 42.8047 110.848 42.4688 110.848 42.0781ZM129.879 43.5312C129.879 44.2109 129.832 44.8906 129.738 45.5703C128.402 45.6562 127.074 45.7969 125.754 45.9922C124.434 46.1797 123.113 46.3672 121.793 46.5547C121.996 47.1172 122.312 47.5664 122.742 47.9023C123.18 48.2383 123.699 48.4062 124.301 48.4062C124.613 48.4062 124.953 48.3477 125.32 48.2305C125.695 48.1133 126.066 47.9688 126.434 47.7969C126.801 47.6172 127.152 47.4258 127.488 47.2227C127.824 47.0195 128.113 46.8359 128.355 46.6719L127.793 51.9922C127.488 52.2266 127.156 52.4258 126.797 52.5898C126.445 52.7539 126.078 52.8867 125.695 52.9883C125.312 53.0898 124.926 53.1641 124.535 53.2109C124.145 53.2578 123.762 53.2812 123.387 53.2812C122.613 53.2812 121.906 53.1758 121.266 52.9648C120.625 52.7539 120.043 52.4609 119.52 52.0859C119.004 51.7031 118.551 51.2539 118.16 50.7383C117.77 50.2227 117.445 49.6602 117.188 49.0508C116.93 48.4414 116.734 47.7969 116.602 47.1172C116.469 46.4375 116.402 45.75 116.402 45.0547C116.402 44.3281 116.469 43.6016 116.602 42.875C116.734 42.1484 116.934 41.4492 117.199 40.7773C117.473 40.1055 117.812 39.4844 118.219 38.9141C118.633 38.3359 119.113 37.832 119.66 37.4023C120.207 36.9727 120.824 36.6367 121.512 36.3945C122.207 36.1523 122.973 36.0312 123.809 36.0312C124.504 36.0312 125.137 36.1289 125.707 36.3242C126.285 36.5117 126.797 36.7773 127.242 37.1211C127.695 37.457 128.086 37.8594 128.414 38.3281C128.75 38.7969 129.023 39.3125 129.234 39.875C129.453 40.4297 129.613 41.0195 129.715 41.6445C129.824 42.2617 129.879 42.8906 129.879 43.5312ZM125.191 42.9219C125.191 42.7031 125.168 42.4805 125.121 42.2539C125.074 42.0195 124.996 41.8086 124.887 41.6211C124.785 41.4336 124.648 41.2812 124.477 41.1641C124.305 41.0391 124.09 40.9766 123.832 40.9766C123.52 40.9766 123.242 41.0625 123 41.2344C122.766 41.3984 122.562 41.6094 122.391 41.8672C122.219 42.1172 122.078 42.3906 121.969 42.6875C121.859 42.9844 121.777 43.2578 121.723 43.5078L125.191 43.1797V42.9219ZM142.664 47C142.664 48.0703 142.477 48.9961 142.102 49.7773C141.734 50.5508 141.227 51.1914 140.578 51.6992C139.938 52.1992 139.184 52.5703 138.316 52.8125C137.457 53.0469 136.531 53.1641 135.539 53.1641C135.156 53.1641 134.734 53.1133 134.273 53.0117C133.82 52.9102 133.359 52.7852 132.891 52.6367C132.422 52.4805 131.969 52.3164 131.531 52.1445C131.102 51.9648 130.719 51.7969 130.383 51.6406L130.898 47.0469C131.562 47.4453 132.297 47.75 133.102 47.9609C133.914 48.1641 134.711 48.2656 135.492 48.2656C135.641 48.2656 135.82 48.2617 136.031 48.2539C136.242 48.2383 136.441 48.2031 136.629 48.1484C136.824 48.0859 136.988 47.9961 137.121 47.8789C137.254 47.7617 137.32 47.5938 137.32 47.375C137.32 47.2266 137.273 47.1016 137.18 47C137.086 46.8906 136.965 46.8047 136.816 46.7422C136.668 46.6719 136.5 46.6211 136.312 46.5898C136.125 46.5508 135.941 46.5234 135.762 46.5078C135.582 46.4922 135.414 46.4844 135.258 46.4844C135.102 46.4844 134.977 46.4844 134.883 46.4844C134.211 46.4844 133.598 46.3789 133.043 46.168C132.496 45.957 132.023 45.6602 131.625 45.2773C131.234 44.8867 130.93 44.418 130.711 43.8711C130.492 43.3164 130.383 42.7031 130.383 42.0312C130.383 41.1094 130.566 40.2852 130.934 39.5586C131.309 38.8242 131.805 38.2031 132.422 37.6953C133.047 37.1797 133.762 36.7852 134.566 36.5117C135.371 36.2383 136.203 36.1016 137.062 36.1016C137.445 36.1016 137.84 36.1172 138.246 36.1484C138.652 36.1719 139.055 36.2188 139.453 36.2891C139.859 36.3594 140.254 36.4492 140.637 36.5586C141.02 36.668 141.383 36.8047 141.727 36.9688L141.281 41.7266C140.75 41.5469 140.191 41.3984 139.605 41.2812C139.027 41.1562 138.461 41.0938 137.906 41.0938C137.805 41.0938 137.672 41.0977 137.508 41.1055C137.352 41.1055 137.184 41.1172 137.004 41.1406C136.832 41.1562 136.656 41.1836 136.477 41.2227C136.297 41.2617 136.137 41.3164 135.996 41.3867C135.855 41.4492 135.742 41.5352 135.656 41.6445C135.57 41.7539 135.531 41.8828 135.539 42.0312C135.547 42.2031 135.609 42.3359 135.727 42.4297C135.852 42.5234 136.008 42.5938 136.195 42.6406C136.391 42.6797 136.602 42.6992 136.828 42.6992C137.062 42.6992 137.293 42.6953 137.52 42.6875C137.746 42.6719 137.957 42.6602 138.152 42.6523C138.348 42.6367 138.508 42.6328 138.633 42.6406C139.258 42.6797 139.82 42.8125 140.32 43.0391C140.82 43.2656 141.242 43.5664 141.586 43.9414C141.938 44.3164 142.203 44.7656 142.383 45.2891C142.57 45.8047 142.664 46.375 142.664 47ZM155.555 36.4766L155.438 41.4453L151.945 41.5859L151.523 52.4609L146.578 52.7188L146.133 41.8438L142.641 42.0312L142.781 36.5L155.555 36.4766Z" fill="#495BFF"/>
</svg>
