<?xml version="1.0" encoding="utf-8"?>
<svg viewBox="0 0 389.726 57.882" xmlns="http://www.w3.org/2000/svg">
  <g transform="matrix(1, 0, 0, 1, -317.143036, -355.068939)">
    <g id="title" style="font-style:normal;font-weight:normal;font-size:72px;line-height:1;font-family:'Brandmark Sans 24 Spectrum';font-variant-ligatures:normal;text-align:center;text-anchor:middle">
      <g id="path380517" aria-label="T" transform="translate(0 310.71592) translate(317.1430409 46.35103999999999) scale(1.11) translate(-344.10388 49.536)">
        <rect x="94.18177" y="75.224" class="c1" width="11.63645" height="49.55247" transform="translate(262.743361 -124.759999)" stroke-width="0" stroke-linejoin="miter" stroke-miterlimit="2" fill="#9400d3" stroke="#9400d3"/>
        <rect x="81.36052" y="75.22401" class="c3" width="37.27896" height="10.66673" transform="translate(262.743361 -124.759999)" stroke-width="0" stroke-linejoin="miter" stroke-miterlimit="2" fill="#cd63a2" stroke="#cd63a2"/>
        <rect x="94.18172" y="75.224" class="c2" width="11.63645" height="10.66672" transform="translate(262.743361 -124.759999)" stroke-width="0" stroke-linejoin="miter" stroke-miterlimit="2" fill="#b031ba" stroke="#b031ba"/>
      </g>
      <g id="path380519" aria-label="h" transform="translate(0 310.71592) translate(365.1010016 44.35303999999999) scale(1.11) translate(-385.30925 51.336)">
        <path class="c1" d="M100,82.30096c-9.62128,0-17.44897,7.82776-17.44897,17.44904h10.66675 c0-3.73962,3.0426-6.78223,6.78223-6.78223s6.78223,3.0426,6.78223,6.78223v17.41302h10.66675V99.75 C117.44897,90.12872,109.62128,82.30096,100,82.30096z" transform="translate(302.75825 -117.112253)" stroke-width="0" stroke-linejoin="miter" stroke-miterlimit="2" fill="#9400d3" stroke="#9400d3"/>
        <rect x="82.551" y="65.77625" class="c3" width="10.66675" height="51.38676" transform="translate(302.75825 -117.112253)" stroke-width="0" stroke-linejoin="miter" stroke-miterlimit="2" fill="#cd63a2" stroke="#cd63a2"/>
        <path class="c2" d="M93.21775,99.75V83.67329C86.95557,86.32512,82.551,92.53285,82.551,99.75" transform="translate(302.75825 -117.112253)" stroke-width="0" stroke-linejoin="miter" stroke-miterlimit="2" fill="#b031ba" stroke="#b031ba"/>
      </g>
      <g id="path380521" aria-label="e" transform="translate(0 310.71592) translate(411.22039159999997 62.65832084) scale(1.11) translate(-424.85825 34.844756)">
        <path class="c1" d="M107.26409,100.0947v-0.09695c-0.0097-0.78545-0.16483-1.57092-0.43638-2.32732 c-0.42667-1.1636-1.11518-2.15271-1.99759-2.91875c-1.89094-1.65822-4.62551-2.27885-7.15643-1.35761 c-2.54062,0.93094-4.2376,3.15154-4.62551,5.64368v0.00971c-0.16483,1.15395-0.06789,2.34666,0.35879,3.51032 c0.40732,1.13454,1.09577,2.10424,1.93941,2.87029c1.90064,1.69698,4.65463,2.32732,7.21461,1.38673 c2.0946-0.7564,3.69457-2.42426,4.36367-4.55762l10.1819,3.20972c-1.68728,5.33337-5.66304,9.46432-10.89947,11.37462 c-8.14548,2.96729-17.0862-0.40726-21.38198-7.5831c-0.56244-0.96-1.04729-1.97817-1.44485-3.05453 c-0.39761-1.09576-0.6788-2.21095-0.86305-3.32613C81.21784,94.63525,85.89177,86.33459,94.0276,83.377 c8.11642-2.95759,17.03771,0.38791,21.34321,7.54433c0.42667,0.71757,0.82422,1.48361,1.15395,2.28848 c0.11636,0.27155,0.22301,0.54304,0.32002,0.81458c0.09695,0.27148,0.18424,0.53333,0.27148,0.80481 c0.25214,0.81458,0.4558,1.6388,0.58186,2.46309l-0.0873,0.02906l-10.42432,3.80122 C107.23497,100.78321,107.26409,100.44384,107.26409,100.0947z" transform="translate(342.556376 -117.14626)" stroke-width="0" stroke-linejoin="miter" stroke-miterlimit="2" fill="#9400d3" stroke="#9400d3"/>
        <path class="c3" d="M117.61082,97.32136v0.0097l-10.42432,3.79152l-11.84012,4.30549l-10.52127,3.83035 c-0.56244-0.96-1.04729-1.97817-1.44485-3.05453c-0.39761-1.09576-0.6788-2.21095-0.86305-3.32613l10.53098-3.83028v-0.00971 l11.78194-4.28607l10.44374-3.80128c0.47514,0.70792,0.90182,1.46426,1.25089,2.25942 c0.11636,0.27155,0.22301,0.54304,0.32002,0.81458c0.09695,0.27148,0.18424,0.53333,0.27148,0.80481 C117.34898,95.64378,117.52358,96.47772,117.61082,97.32136z" transform="translate(342.556376 -117.14626)" stroke-width="0" stroke-linejoin="miter" stroke-miterlimit="2" fill="#cd63a2" stroke="#cd63a2"/>
        <path class="c2" d="M104.83444,94.75304c0.87679,0.76445,1.56636,1.75179,1.99091,2.91811 c0.27528,0.75633,0.42543,1.53753,0.43478,2.32873L107.25948,100c0.00041,0.03279,0.00065,0.06557,0.00065,0.09849 c0,0.34689-0.02486,0.68803-0.07256,1.02167l10.3285-3.75926l0.09008-0.03279c-0.11571-1.1343-0.36932-2.23907-0.75735-3.30518 c-0.40134-1.10264-0.93573-2.12579-1.57618-3.06904L104.83444,94.75304z" transform="translate(342.556376 -117.14626)" stroke-width="0" stroke-linejoin="miter" stroke-miterlimit="2" fill="#b031ba" stroke="#b031ba"/>
        <path class="c2" d="M93.40301,102.55648c-0.42448-1.16637-0.52184-2.36922-0.35068-3.51506l-10.52624,3.83124 c0.17548,1.11607,0.45284,2.23132,0.85346,3.33205c0.39371,1.08163,0.8898,2.09602,1.46018,3.04939l10.50689-3.82419 C94.50056,104.66457,93.81761,103.69552,93.40301,102.55648z" transform="translate(342.556376 -117.14626)" stroke-width="0" stroke-linejoin="miter" stroke-miterlimit="2" fill="#b031ba" stroke="#b031ba"/>
      </g>
      <g id="path380523" aria-label="R" transform="translate(0 310.71592) translate(458.9939590999999 46.35103999999999) scale(1.11) translate(-465.8975 49.536)">
        <rect x="81.55034" y="75.224" class="c3" width="11.63645" height="49.55247" transform="translate(384.347161 -124.75764)" stroke-width="0" stroke-linejoin="miter" stroke-miterlimit="2" fill="#cd63a2" stroke="#cd63a2"/>
        <path class="c1" d="M118.44966,92.01864c0-9.26191-7.5351-16.797-16.79748-16.797H81.55034v10.66675h20.10184 c3.38071,0,6.13073,2.75002,6.13073,6.13026c0,3.38071-2.75002,6.13073-6.13073,6.13073H81.55034v10.66675h20.10125 c3.38071,0,6.13073,2.75002,6.13073,6.13074v9.82962h10.66675v-9.82962c0-4.43316-1.73877-8.45876-4.55413-11.46381 C116.71066,100.47799,118.44966,96.45203,118.44966,92.01864z" transform="translate(384.347161 -124.75764)" stroke-width="0" stroke-linejoin="miter" stroke-miterlimit="2" fill="#9400d3" stroke="#9400d3"/>
        <rect x="81.55034" y="75.224" class="c2" width="11.63645" height="10.66438" transform="translate(384.347161 -124.75764)" stroke-width="0" stroke-linejoin="miter" stroke-miterlimit="2" fill="#b031ba" stroke="#b031ba"/>
        <rect x="81.55034" y="98.14937" class="c2" width="11.63645" height="10.66675" transform="translate(384.347161 -124.75764)" stroke-width="0" stroke-linejoin="miter" stroke-miterlimit="2" fill="#b031ba" stroke="#b031ba"/>
      </g>
      <g id="path380525" aria-label="o" transform="translate(0 310.71592) translate(507.5975291 62.65472) scale(1.11) translate(-507.6845 34.848)">
        <path class="c1" d="M99.99953,117.92154c-9.82015,0-17.8098-7.98965-17.8098-17.81027s7.98965-17.81027,17.8098-17.81027 c9.8211,0,17.81075,7.98965,17.81075,17.81027S109.82063,117.92154,99.99953,117.92154z M99.99953,92.96775 c-3.93848,0-7.14305,3.20457-7.14305,7.14352c0,3.93896,3.20457,7.14352,7.14305,7.14352c3.93942,0,7.144-3.20457,7.144-7.14352 C107.14352,96.17232,103.93895,92.96775,99.99953,92.96775z" transform="translate(425.49477 -117.149)" stroke-width="0" stroke-linejoin="miter" stroke-miterlimit="2" fill="#9400d3" stroke="#9400d3"/>
      </g>
      <g id="path380527" aria-label="c" transform="translate(0 310.71592) translate(553.5237790999998 62.65472) scale(1.11) translate(-547.0595 34.848)">
        <path class="c1" d="M101.54855,117.92154c-9.82063,0-17.81027-7.98965-17.81027-17.81027s7.98965-17.81027,17.81027-17.81027 c5.88831,0,11.38834,2.90533,14.71318,7.77137l-8.80783,6.01709c-1.33524-1.95456-3.54311-3.1217-5.90535-3.1217 c-3.93895,0-7.14352,3.20457-7.14352,7.14352c0,3.93896,3.20457,7.14352,7.14352,7.14352 c2.28174,0,4.37314-1.05209,5.73773-2.88638l8.55783,6.36747C112.49607,115.23544,107.15181,117.92154,101.54855,117.92154z" transform="translate(463.32122 -117.149)" stroke-width="0" stroke-linejoin="miter" stroke-miterlimit="2" fill="#9400d3" stroke="#9400d3"/>
      </g>
      <g id="path380529" aria-label="k" transform="translate(0 310.71592) translate(597.2297515999999 44.35303999999999) scale(1.11) translate(-584.43425 51.336)">
        <rect x="82.61639" y="65.77625" class="c1" width="10.66675" height="51.38676" transform="translate(501.817864 -117.112253)" stroke-width="0" stroke-linejoin="miter" stroke-miterlimit="2" fill="#9400d3" stroke="#9400d3"/>
        <polygon class="c3" points="117.38361,83.03774 103.45621,83.03774 82.61639,100.10038 103.45551,117.16301 117.38361,117.16301 96.54379,100.10038 " transform="translate(501.817864 -117.112253)" stroke-width="0" stroke-linejoin="miter" stroke-miterlimit="2" fill="#cd63a2" stroke="#cd63a2"/>
        <polygon class="c2" points="93.28314,91.36694 82.61639,100.10038 93.28314,108.83411 " transform="translate(501.817864 -117.112253)" stroke-width="0" stroke-linejoin="miter" stroke-miterlimit="2" fill="#b031ba" stroke="#b031ba"/>
      </g>
      <g id="path380531" aria-label="e" transform="translate(0 310.71592) translate(637.1053915999998 62.65832084) scale(1.11) translate(-618.35825 34.844756)">
        <path class="c1" d="M107.26409,100.0947v-0.09695c-0.0097-0.78545-0.16483-1.57092-0.43638-2.32732 c-0.42667-1.1636-1.11518-2.15271-1.99759-2.91875c-1.89094-1.65822-4.62551-2.27885-7.15643-1.35761 c-2.54062,0.93094-4.2376,3.15154-4.62551,5.64368v0.00971c-0.16483,1.15395-0.06789,2.34666,0.35879,3.51032 c0.40732,1.13454,1.09577,2.10424,1.93941,2.87029c1.90064,1.69698,4.65463,2.32732,7.21461,1.38673 c2.0946-0.7564,3.69457-2.42426,4.36367-4.55762l10.1819,3.20972c-1.68728,5.33337-5.66304,9.46432-10.89947,11.37462 c-8.14548,2.96729-17.0862-0.40726-21.38198-7.5831c-0.56244-0.96-1.04729-1.97817-1.44485-3.05453 c-0.39761-1.09576-0.6788-2.21095-0.86305-3.32613C81.21784,94.63525,85.89177,86.33459,94.0276,83.377 c8.11642-2.95759,17.03771,0.38791,21.34321,7.54433c0.42667,0.71757,0.82422,1.48361,1.15395,2.28848 c0.11636,0.27155,0.22301,0.54304,0.32002,0.81458c0.09695,0.27148,0.18424,0.53333,0.27148,0.80481 c0.25214,0.81458,0.4558,1.6388,0.58186,2.46309l-0.0873,0.02906l-10.42432,3.80122 C107.23497,100.78321,107.26409,100.44384,107.26409,100.0947z" transform="translate(536.056376 -117.14626)" stroke-width="0" stroke-linejoin="miter" stroke-miterlimit="2" fill="#9400d3" stroke="#9400d3"/>
        <path class="c3" d="M117.61082,97.32136v0.0097l-10.42432,3.79152l-11.84012,4.30549l-10.52127,3.83035 c-0.56244-0.96-1.04729-1.97817-1.44485-3.05453c-0.39761-1.09576-0.6788-2.21095-0.86305-3.32613l10.53098-3.83028v-0.00971 l11.78194-4.28607l10.44374-3.80128c0.47514,0.70792,0.90182,1.46426,1.25089,2.25942 c0.11636,0.27155,0.22301,0.54304,0.32002,0.81458c0.09695,0.27148,0.18424,0.53333,0.27148,0.80481 C117.34898,95.64378,117.52358,96.47772,117.61082,97.32136z" transform="translate(536.056376 -117.14626)" stroke-width="0" stroke-linejoin="miter" stroke-miterlimit="2" fill="#cd63a2" stroke="#cd63a2"/>
        <path class="c2" d="M104.83444,94.75304c0.87679,0.76445,1.56636,1.75179,1.99091,2.91811 c0.27528,0.75633,0.42543,1.53753,0.43478,2.32873L107.25948,100c0.00041,0.03279,0.00065,0.06557,0.00065,0.09849 c0,0.34689-0.02486,0.68803-0.07256,1.02167l10.3285-3.75926l0.09008-0.03279c-0.11571-1.1343-0.36932-2.23907-0.75735-3.30518 c-0.40134-1.10264-0.93573-2.12579-1.57618-3.06904L104.83444,94.75304z" transform="translate(536.056376 -117.14626)" stroke-width="0" stroke-linejoin="miter" stroke-miterlimit="2" fill="#b031ba" stroke="#b031ba"/>
        <path class="c2" d="M93.40301,102.55648c-0.42448-1.16637-0.52184-2.36922-0.35068-3.51506l-10.52624,3.83124 c0.17548,1.11607,0.45284,2.23132,0.85346,3.33205c0.39371,1.08163,0.8898,2.09602,1.46018,3.04939l10.50689-3.82419 C94.50056,104.66457,93.81761,103.69552,93.40301,102.55648z" transform="translate(536.056376 -117.14626)" stroke-width="0" stroke-linejoin="miter" stroke-miterlimit="2" fill="#b031ba" stroke="#b031ba"/>
      </g>
      <g id="path380533" aria-label="t" transform="translate(0 310.71592) translate(683.8399990999998 50.26711999999999) scale(1.11) translate(-658.4615 46.008)">
        <rect x="89.62634" y="83.27071" class="c3" width="18.56359" height="8.72734" transform="translate(568.83516 -117.11762)" stroke-width="0" stroke-linejoin="miter" stroke-miterlimit="2" fill="#cd63a2" stroke="#cd63a2"/>
        <path class="c1" d="M102.78458,117.92722c-7.25574,0-13.15824-5.90298-13.15824-13.15825V71.10962h10.66675v33.65936 c0,1.3736,1.11743,2.4915,2.49149,2.4915c0.65437,0,1.14016-0.24574,1.43183-0.45219l6.15724,8.7103 C108.14448,117.09436,105.5204,117.92722,102.78458,117.92722z" transform="translate(568.83516 -117.11762)" stroke-width="0" stroke-linejoin="miter" stroke-miterlimit="2" fill="#9400d3" stroke="#9400d3"/>
        <rect x="89.62634" y="83.27071" class="c2" width="10.66675" height="8.72734" transform="translate(568.83516 -117.11762)" stroke-width="0" stroke-linejoin="miter" stroke-miterlimit="2" fill="#b031ba" stroke="#b031ba"/>
      </g>
    </g>
  </g>
</svg>