<?xml version="1.0" encoding="iso-8859-1"?>
<!-- Uploaded to: SVG Repo, www.svgrepo.com, Generator: SVG Repo Mixer Tools -->
<svg height="800px" width="800px" version="1.1" id="Capa_1" xmlns="http://www.w3.org/2000/svg" xmlns:xlink="http://www.w3.org/1999/xlink" 
	 viewBox="0 0 473.68 473.68" xml:space="preserve">
<circle style="fill:#FFFFFF;" cx="236.85" cy="236.85" r="236.83"/>
<path style="fill:#D32027;" d="M460.14,157.874H314.218c6.335,50.593,6.376,106.339,0.12,156.995h146.116
	c8.526-24.438,13.219-50.682,13.219-78.026C473.677,209.139,468.875,182.573,460.14,157.874z"/>
<path style="fill:#0B0B0B;" d="M314.218,157.874H460.14c-0.026-0.075-0.049-0.138-0.075-0.206
	C429.752,72.2,351.785,9.319,258.105,0.972C294.357,20.844,304.944,83.804,314.218,157.874z"/>
<path style="fill:#F3C515;" d="M258.109,472.697c93.848-8.362,171.927-71.46,202.12-157.156c0.079-0.228,0.146-0.452,0.228-0.673
	h-146.12C305.142,389.338,294.51,452.743,258.109,472.697z"/>
<path style="fill:#DB2727;" d="M0,236.842c0,27.348,4.693,53.588,13.219,78.026h313.313c6.256-50.66,6.215-106.402-0.12-156.995
	H13.534C4.798,182.573,0,209.139,0,236.842z"/>
<path style="fill:#151515;" d="M13.605,157.668c-0.026,0.067-0.049,0.131-0.075,0.206h312.883
	c-9.274-74.07-32.056-137.029-68.303-156.901C251.097,0.352,244.007,0,236.835,0C133.806,0,46.184,65.802,13.605,157.668z"/>
<path style="fill:#F8D12E;" d="M326.532,314.868H13.219c0.079,0.221,0.15,0.445,0.228,0.673
	c32.452,92.102,120.19,158.135,223.387,158.135c7.173,0,14.263-0.352,21.274-0.98C294.51,452.743,317.336,389.338,326.532,314.868z"
	/>
</svg>